<svg xmlns="http://www.w3.org/2000/svg" width="24" height="24"><g fill="none" fill-rule="evenodd"><path d="M0 0h24v24H0z"/><path fill="#666" d="M2.027 16l1.97 4.896L5.97 16H7v6h-.795v-2.337l.075-2.522L4.3 22h-.608l-1.976-4.846.079 2.51V22H1v-6h1.027zm9.93 0v.651H8.83v1.929h2.729v.647H8.83v2.126H12V22H8v-6h3.957zm1.905 0l3.285 4.644V16H18v6h-.862l-3.276-4.624V22H13v-6h.862zm5.86 0v4.008l.006.178c.027.343.135.617.323.82.22.237.534.356.941.356.413 0 .728-.118.947-.354.22-.236.329-.568.329-.996V16H23v4.024l-.009.205c-.037.466-.198.855-.482 1.165-.326.355-.766.555-1.323.598l-.194.008c-.604 0-1.086-.175-1.446-.524-.359-.35-.54-.831-.546-1.443V16h.721zm2.82-6c.253 0 .458.224.458.5 0 .245-.162.45-.376.492l-.082.008H1.458C1.205 11 1 10.776 1 10.5c0-.245.162-.45.376-.492L1.458 10h21.084zm0-8c.253 0 .458.224.458.5 0 .245-.162.45-.376.492L22.542 3H1.458C1.205 3 1 2.776 1 2.5c0-.245.162-.45.376-.492L1.458 2h21.084z"/></g></svg>